D:\PredSimResults\Vitruvian_Man\IG_v20ms_ATx70.mot
version=1
nRows=15
nColumns=31
inDegrees=yes
endheader
                time	         pelvis_tilt	           pelvis_tx	           pelvis_ty	       hip_flexion_r	        knee_angle_r	       ankle_angle_r	       hip_flexion_l	        knee_angle_l	       ankle_angle_l	    lumbar_extension	          arm_flex_r	          arm_flex_l	hamstrings_r/activation	bifemsh_r/activation	glut_max_r/activation	iliopsoas_r/activation	rect_fem_r/activation	  vasti_r/activation	gastroc_r/activation	 soleus_r/activation	tib_ant_r/activation	hamstrings_l/activation	bifemsh_l/activation	glut_max_l/activation	iliopsoas_l/activation	rect_fem_l/activation	  vasti_l/activation	gastroc_l/activation	 soleus_l/activation	tib_ant_l/activation	
          0.82396428	         -3.55818105	          1.62711433	          0.96591192	         34.50881387	        -16.13316660	         10.44101818	        -12.18592265	        -19.79096815	         -4.50333732	        -10.05378776	         35.62606901	         35.62549471	          0.83456795	          0.05730428	          0.49803260	          0.06467495	          0.05689227	          0.12129554	          0.05001702	          0.05000532	          0.64361820	          0.05000273	          0.05640259	          0.06363678	          0.91545024	          0.51783715	          0.10819755	          0.31565145	          0.16080454	          0.13713500	
          0.83220392	         -4.10928829	          1.64820985	          0.96350488	         34.50114756	        -17.09842990	          9.65552841	        -12.17348087	        -20.52092326	         -6.95731411	         -8.79060894	         34.88819130	         34.88761070	          0.73379963	          0.05042216	          0.63712351	          0.05686635	          0.05002437	          0.29599452	          0.05002891	          0.05210423	          0.76996972	          0.07175880	          0.05012170	          0.08684535	          0.87785353	          0.45531349	          0.09513859	          0.27753836	          0.14138820	          0.43187645	
          0.84044356	         -4.65934632	          1.66912418	          0.96113796	         34.59313978	        -18.40235942	          9.11212177	        -11.91903040	        -21.56808248	         -9.07632948	         -7.52383575	         34.11262696	         34.11204234	          0.64519690	          0.05003808	          0.73557730	          0.05000183	          0.05000199	          0.46120699	          0.05000268	          0.05000116	          0.85152614	          0.06309688	          0.05001418	          0.07636785	          0.88101654	          0.51396359	          0.08365398	          0.24402781	          0.12431649	          0.37972970	
          0.84868321	         -5.20144038	          1.68940305	          0.95913269	         34.87039602	        -19.78985658	          7.43311940	        -11.40891103	        -22.83382298	         -9.79616203	         -6.32885211	         33.35528455	         33.35469847	          0.56729245	          0.05003206	          0.80930257	          0.05000493	          0.05000976	          0.61371280	          0.05000432	          0.05000187	          0.90416689	          0.05548003	          0.05004510	          0.06714750	          0.85236848	          0.56906196	          0.07355373	          0.21456335	          0.10930603	          0.54147084	
          0.85692285	         -5.70295201	          1.70914944	          0.95762304	         35.22620663	        -21.33264610	          5.81209380	        -10.72582369	        -24.19747643	         -9.52622406	         -5.23385226	         32.60430007	         32.60371516	          0.49879460	          0.05002209	          0.87688512	          0.05000669	          0.05002269	          0.75061039	          0.05000510	          0.05000214	          0.93814385	          0.05000555	          0.14886887	          0.05904045	          0.79199885	          0.55077525	          0.06467292	          0.18865677	          0.09610803	          0.56769974	
          0.86516249	         -6.15513835	          1.72854134	          0.95666752	         35.50147844	        -22.86971106	          4.71304683	         -9.92031578	        -25.54276921	         -9.30713375	         -4.22757967	         31.83389899	         31.83331794	          0.43856753	          0.05003038	          0.89158771	          0.05001008	          0.05002646	          0.82709544	          0.05000422	          0.05000172	          0.96007432	          0.05000713	          0.22475940	          0.05191269	          0.72399163	          0.48428677	          0.05686460	          0.16587868	          0.08450370	          0.56761886	
          0.87340213	         -6.55694480	          1.74767229	          0.95627579	         35.57775518	        -24.16196182	          3.78100903	         -9.00482898	        -26.89214140	         -8.90344492	         -3.30039250	         31.03387769	         31.03330319	          0.38561260	          0.05008321	          0.82565243	          0.05000883	          0.05001124	          0.85362444	          0.05000357	          0.05000139	          0.97422926	          0.05000947	          0.26411892	          0.05000325	          0.64019215	          0.42581865	          0.05000239	          0.14585103	          0.07430061	          0.55559572	
          0.88164178	         -6.90959322	          1.76657178	          0.95641894	         35.43514711	        -25.17569992	          3.01706880	         -7.98269050	        -28.28090954	         -8.14760834	         -2.44905455	         30.20730026	         30.20673493	          0.33905172	          0.05019266	          0.72596123	          0.05000605	          0.05000794	          0.88736821	          0.05000408	          0.05000156	          0.98336511	          0.05385338	          0.29183182	          0.05000448	          0.56289566	          0.37441191	          0.05000208	          0.12824137	          0.06532948	          0.52700447	
          0.88988142	         -7.21386113	          1.78521224	          0.95708511	         35.12644252	        -26.04976660	          2.85098841	         -6.85900779	        -29.70499797	         -7.33767262	         -1.67964073	         29.36604264	         29.36548899	          0.29811286	          0.05002915	          0.63830537	          0.05000346	          0.05000651	          0.91627955	          0.05000767	          0.05000453	          0.98925899	          0.06687491	          0.30900395	          0.05000590	          0.49493028	          0.33984123	          0.05000193	          0.11275792	          0.05744168	          0.49550898	
          0.89812106	         -7.46915681	          1.80351967	          0.95829904	         34.71932017	        -26.93318632	          3.62649168	         -5.63784416	        -31.16513799	         -6.51027484	         -1.00637380	         28.52729482	         28.52675532	          0.26211717	          0.05003164	          0.56123318	          0.05000484	          0.05000972	          0.92077868	          0.05000832	          0.05000480	          0.86982062	          0.05883458	          0.33337572	          0.05000380	          0.43517110	          0.39366636	          0.05000162	          0.09914394	          0.05050670	          0.47089091	
          0.90636071	         -7.66959906	          1.82151434	          0.96006009	         34.16115984	        -27.64424097	          4.56535100	         -4.35558149	        -32.60938915	         -5.64359828	         -0.43750190	         27.69729302	         27.69677003	          0.23046783	          0.05004440	          0.49346699	          0.05000487	          0.05000858	          0.88964771	          0.05000749	          0.05000346	          0.76479682	          0.05704224	          0.35403529	          0.05000329	          0.38262753	          0.39718750	          0.05000156	          0.08717373	          0.05000180	          0.45165053	
          0.91460035	         -7.80983757	          1.83926127	          0.96231178	         33.40124282	        -28.08126257	          5.43186002	         -3.05463024	        -33.96973839	         -4.85930852	          0.02594646	         26.87866618	         26.87816192	          0.20264002	          0.05004537	          0.43388320	          0.05000428	          0.05000772	          0.81504603	          0.05000732	          0.05000375	          0.67245423	          0.05655541	          0.38049610	          0.05000344	          0.33642904	          0.40661445	          0.05000161	          0.07664897	          0.05000212	          0.43920278	
          0.92283999	         -7.88503679	          1.85678456	          0.96497483	         32.45430482	        -28.28656610	          6.26439037	         -1.76129564	        -35.21773441	         -4.14277852	          0.37908140	         26.08110707	         26.08062360	          0.17817232	          0.05004541	          0.38149387	          0.05000391	          0.05000716	          0.71665291	          0.05000776	          0.05000394	          0.59126290	          0.05290367	          0.41339855	          0.05000346	          0.29581228	          0.40928925	          0.05000169	          0.06739530	          0.05000240	          0.43238677	
          0.93107963	         -7.88926205	          1.87409864	          0.96795089	         31.34583436	        -28.31455042	          7.05633262	         -0.49531679	        -36.34712157	         -3.40234079	          0.61509381	         25.31680782	         25.31634699	          0.15665903	          0.05004379	          0.33543032	          0.05000392	          0.05000760	          0.63012367	          0.05000853	          0.05000451	          0.51987903	          0.05002926	          0.45385915	          0.05000331	          0.26430505	          0.40947446	          0.05000175	          0.05925940	          0.05000232	          0.42654701	
          0.93931928	         -7.81819938	          1.89121565	          0.97113607	         30.09568078	        -28.20511967	          7.79133903	          0.73268778	        -37.36457734	         -2.63742101	          0.72921071	         24.59756612	         24.59712960	          0.13774341	          0.05004308	          0.29492874	          0.05000394	          0.05000785	          0.55404065	          0.05010818	          0.05000496	          0.45713611	          0.05001971	          0.49725350	          0.05000313	          0.24643714	          0.40567629	          0.05000180	          0.05210725	          0.05000231	          0.42041869	
